<?xml version="1.0" encoding="UTF-8" standalone="no"?>
<!DOCTYPE svg PUBLIC "-//W3C//DTD SVG 1.1//EN" "http://www.w3.org/Graphics/SVG/1.1/DTD/svg11.dtd">
<svg version="1.1" xmlns="http://www.w3.org/2000/svg" xmlns:xlink="http://www.w3.org/1999/xlink" preserveAspectRatio="xMidYMid meet" viewBox="0 0 640 640" width="640" height="640"><defs><path d="M27 0.04L29.23 26.3L18.73 34.32C19.78 67.06 20.37 85.25 20.49 88.88C20.59 92.13 18.05 94.85 14.8 94.96C14.74 94.96 14.68 94.96 14.62 94.96C11.37 94.95 8.74 92.32 8.75 89.07C8.75 89.01 8.75 88.95 8.75 88.88C8.86 85.44 9.42 68.23 10.41 37.24L14.04 37.24L14.04 36.62L0.01 26.3L2.24 0.04L6.54 0.04C6.54 10.19 6.54 15.84 6.54 16.96C6.54 18.41 7.71 19.59 9.16 19.59C9.16 19.59 9.16 19.59 9.16 19.59C10.57 19.59 11.72 18.49 11.78 17.08C11.84 15.95 12.09 10.27 12.56 0.04L16.68 0.04C17.15 10.27 17.41 15.95 17.46 17.08C17.52 18.49 18.68 19.59 20.08 19.59C21.53 19.59 22.7 18.41 22.7 16.96C22.7 15.84 22.7 10.19 22.7 0.04L27 0.04Z" id="b1gwtVwbQT"></path></defs><g><g><g><g><filter id="shadow16664324" x="-8.99" y="-8.96" width="48.22" height="113.92" filterUnits="userSpaceOnUse" primitiveUnits="userSpaceOnUse"><feFlood></feFlood><feComposite in2="SourceAlpha" operator="in"></feComposite><feGaussianBlur stdDeviation="1"></feGaussianBlur><feOffset dx="1" dy="1" result="afterOffset"></feOffset><feFlood flood-color="#000000" flood-opacity="0.5"></feFlood><feComposite in2="afterOffset" operator="in"></feComposite><feMorphology operator="dilate" radius="1"></feMorphology><feComposite in2="SourceAlpha" operator="out"></feComposite></filter><path d="M27 0.04L29.23 26.3L18.73 34.32C19.78 67.06 20.37 85.25 20.49 88.88C20.59 92.13 18.05 94.85 14.8 94.96C14.74 94.96 14.68 94.96 14.62 94.96C11.37 94.95 8.74 92.32 8.75 89.07C8.75 89.01 8.75 88.95 8.75 88.88C8.86 85.44 9.42 68.23 10.41 37.24L14.04 37.24L14.04 36.62L0.01 26.3L2.24 0.04L6.54 0.04C6.54 10.19 6.54 15.84 6.54 16.96C6.54 18.41 7.71 19.59 9.16 19.59C9.16 19.59 9.16 19.59 9.16 19.59C10.57 19.59 11.72 18.49 11.78 17.08C11.84 15.95 12.09 10.27 12.56 0.04L16.68 0.04C17.15 10.27 17.41 15.95 17.46 17.08C17.52 18.49 18.68 19.59 20.08 19.59C21.53 19.59 22.7 18.41 22.7 16.96C22.7 15.84 22.7 10.19 22.7 0.04L27 0.04Z" id="b3BbFS6D" fill="white" fill-opacity="1" filter="url(#shadow16664324)"></path></g><use xlink:href="#b1gwtVwbQT" opacity="1" fill="#000000" fill-opacity="1"></use><g><use xlink:href="#b1gwtVwbQT" opacity="1" fill-opacity="0" stroke="#000000" stroke-width="1" stroke-opacity="0"></use></g><g><filter id="shadow14144299" x="-8.99" y="-8.96" width="48.22" height="113.92" filterUnits="userSpaceOnUse" primitiveUnits="userSpaceOnUse"><feFlood></feFlood><feComposite in2="SourceAlpha" operator="out"></feComposite><feGaussianBlur stdDeviation="1"></feGaussianBlur><feOffset dx="1" dy="1" result="afterOffset"></feOffset><feFlood flood-color="#000000" flood-opacity="0.5"></feFlood><feComposite in2="afterOffset" operator="in"></feComposite><feMorphology operator="dilate" radius="1"></feMorphology><feComposite in2="SourceAlpha" operator="in"></feComposite></filter><path d="M27 0.04L29.23 26.3L18.73 34.32C19.78 67.06 20.37 85.25 20.49 88.88C20.59 92.13 18.05 94.85 14.8 94.96C14.74 94.96 14.68 94.96 14.62 94.96C11.37 94.95 8.74 92.32 8.75 89.07C8.75 89.01 8.75 88.95 8.75 88.88C8.86 85.44 9.42 68.23 10.41 37.24L14.04 37.24L14.04 36.62L0.01 26.3L2.24 0.04L6.54 0.04C6.54 10.19 6.54 15.84 6.54 16.96C6.54 18.41 7.71 19.59 9.16 19.59C9.16 19.59 9.16 19.59 9.16 19.59C10.57 19.59 11.72 18.49 11.78 17.08C11.84 15.95 12.09 10.27 12.56 0.04L16.68 0.04C17.15 10.27 17.41 15.95 17.46 17.08C17.52 18.49 18.68 19.59 20.08 19.59C21.53 19.59 22.7 18.41 22.7 16.96C22.7 15.84 22.7 10.19 22.7 0.04L27 0.04Z" id="b2a3Udzsxf" fill="white" fill-opacity="1" filter="url(#shadow14144299)"></path></g></g></g></g></svg>