<svg xmlns="http://www.w3.org/2000/svg" width="121.734" height="70.26" viewBox="0 0 121.734 70.26">
    <defs>
        <style>
            .cls-1{fill:none}
        </style>
    </defs>
    <g id="Group_251" transform="translate(2095.268 -241.514)">
        <path id="Path_164" d="M-2072.888 294.671a2.888 2.888 0 0 1 1.456-3.29l16.321-10.095a19.621 19.621 0 0 0-14.92-6.87 19.721 19.721 0 0 0-19.7 19.688 19.724 19.724 0 0 0 19.7 19.7 19.711 19.711 0 0 0 19.611-18.032l-19.622 1.112a2.894 2.894 0 0 1-2.846-2.213z" class="cls-1" transform="translate(-1.09 -6.477)"/>
        <path id="Path_165" d="M-1976.147 291.41l-1.815 2.055-8.6-9.785-1.822-4.883c-.225-.449-.452-.9-.659-1.357a19.673 19.673 0 0 0-9.136 18.582 19.77 19.77 0 0 0 17.568 17.68 19.726 19.726 0 0 0 21.519-22.51 19.709 19.709 0 0 0-16.355-16.529 19.694 19.694 0 0 0-10.589 1.226l2.092 4.858z" class="cls-1" transform="translate(-19.094 -6.477)"/>
        <path id="Path_166" d="M-2039.318 283.189a23.9 23.9 0 0 1 3.28 10.573h1.568a8.655 8.655 0 0 1 2.223-4.314l-3.357-8.3z" class="cls-1" transform="translate(-11.014 -7.801)"/>
        <path id="Path_167" d="M-2063.251 295.9l18.043-1.112a19.483 19.483 0 0 0-2.724-8.438z" class="cls-1" transform="translate(-6.303 -8.826)"/>
        <path id="Path_168" d="M-2027.816 282.894a8.656 8.656 0 0 1 3.513-.745 8.623 8.623 0 0 1 3.435.712l20.879-24.747v-.267l-31.05 17.087z" class="cls-1" transform="translate(-12.644 -3.215)"/>
        <path id="Path_169" d="M-2023.968 292.259a5.37 5.37 0 0 0-5.37 5.358 5.367 5.367 0 0 0 4.258 5.248v-5.248h2.223v5.248a5.356 5.356 0 0 0 4.258-5.248 5.363 5.363 0 0 0-5.369-5.358z" class="cls-1" transform="translate(-12.979 -9.99)"/>
        <path id="Path_170" fill="#333" d="M-1985.3 271l-.282-.655c.085.222.167.439.256.665z" transform="translate(-21.592 -5.676)"/>
        <path id="Path_171" fill="#005151" d="M-1997.681 263.492a23.881 23.881 0 0 0-9.213 1.835l-.026.01c-.089-.226-.171-.443-.256-.665-1.277-3.315-2.123-6.232-2.123-8.129l-.731-2.578-1.876-12.453h-14.059v1.851l9.865 1.637.866 7.247-29.709 16.358-5.759-14.23a23.17 23.17 0 0 0 3.891-1.957c3.747-2.179 5.192-5.425 1.724-4.524-3.791.978-9.227 3.6-15.853 3.9-5.848.267 2.2 5.181 7.159 3.847l5.893 14.585-4.359 2.4a24.044 24.044 0 0 0-18.877-9.138 24.167 24.167 0 0 0-24.146 24.135 24.17 24.17 0 0 0 24.146 24.147 24.151 24.151 0 0 0 24.069-22.479h1.568a8.69 8.69 0 0 0 7.426 6.959v4.558h-3.635v2.224h10.072v-2.224h-4.214v-4.558a8.7 8.7 0 0 0 7.594-8.627 8.662 8.662 0 0 0-2.5-6.092l18.5-21.923a47.13 47.13 0 0 0 2.345 7.215 24.127 24.127 0 0 0-11.918 20.8 24.168 24.168 0 0 0 24.136 24.147 24.169 24.169 0 0 0 24.146-24.147 24.166 24.166 0 0 0-24.146-24.131zm-73.441 43.836a19.724 19.724 0 0 1-19.7-19.7 19.721 19.721 0 0 1 19.7-19.688 19.62 19.62 0 0 1 14.92 6.87l-16.321 10.095a2.888 2.888 0 0 0-1.456 3.29 2.894 2.894 0 0 0 2.846 2.213l19.622-1.112a19.711 19.711 0 0 1-19.611 18.032zm1.568-20.256l15.32-9.549a19.484 19.484 0 0 1 2.723 8.438zm24.069-1.112h-1.568a23.894 23.894 0 0 0-3.28-10.573l3.714-2.046 3.357 8.3a8.655 8.655 0 0 0-2.222 4.319zm9.649 6.915v-5.248h-2.223v5.248a5.367 5.367 0 0 1-4.258-5.248 5.37 5.37 0 0 1 5.37-5.358 5.363 5.363 0 0 1 5.37 5.358 5.356 5.356 0 0 1-4.258 5.248zm23.2-37.977l-20.879 24.747a8.623 8.623 0 0 0-3.435-.712 8.656 8.656 0 0 0-3.513.745l-3.224-7.96 31.05-17.087zm12.923 52.326a19.77 19.77 0 0 1-17.568-17.68 19.673 19.673 0 0 1 9.136-18.582c.207.461.434.908.659 1.357l1.822 4.883 8.6 9.785 1.815-2.055-7.8-10.664-2.092-4.858a19.694 19.694 0 0 1 10.589-1.226 19.709 19.709 0 0 1 16.355 16.529 19.726 19.726 0 0 1-21.513 22.512z"/>
    </g>
</svg>
