<svg xmlns="http://www.w3.org/2000/svg" id="Component_7_2" width="57.312" height="95.439" viewBox="0 0 57.312 95.439">
    <defs>
        <style>
            .cls-1{fill:#005151;fill-rule:evenodd}
        </style>
    </defs>
    <path id="Path_154" d="M2699.36-403.04l2.151 89.354a5.936 5.936 0 0 1-5.928 6.085 5.936 5.936 0 0 1-5.927-6.133l1.123-34.85h4.3v-.556L2685-355.7l4.106-38.12a10.319 10.319 0 0 1 10.254-9.22z" class="cls-1" transform="translate(-2644.201 403.04)"/>
    <path id="Path_155" d="M2638.015-403.04l2.242 26.406-10.559 8.063 1.768 54.862a5.912 5.912 0 0 1-5.9 6.108 5.912 5.912 0 0 1-5.9-6.108l1.673-51.925h3.647v-.629l-14.11-10.371 2.241-26.406h4.328v17.017a2.639 2.639 0 0 0 2.637 2.642 2.639 2.639 0 0 0 2.634-2.522l.781-17.138h4.146l.782 17.138a2.638 2.638 0 0 0 2.633 2.522 2.64 2.64 0 0 0 2.636-2.642v-17.017z" class="cls-1" transform="translate(-2610.868 403.04)"/>
</svg>
