<svg xmlns="http://www.w3.org/2000/svg" width="264.876" height="95.951" viewBox="0 0 264.876 95.951">
    <defs>
        <style>
            .cls-1{fill:#f5492b}
        </style>
    </defs>
    <g id="Danish_Crown_Primary_logo_Red_RGB" transform="translate(0 -1.15)">
        <path id="Path_124" d="M12.018 29.79H0v.41l2.168 2.77v20.206L0 55.873v.482h12.018c8.959 0 15.317-5.587 15.317-13.559 0-7.876-6.141-13.006-15.317-13.006zm-.361 25.336h-1.4V31.091h1.421c4.937 0 7.129 3.589 7.129 11.9-.021 7.873-2.189 12.135-7.15 12.135z" class="cls-1" transform="translate(0 40.337)"/>
        <path id="Path_125" d="M30.591 40.03v13.607h-.241l-6.6-2.24a7.872 7.872 0 0 1-5.9 2.24c-3.011 0-5.78-1.758-5.78-5.009 0-4.118 3.011-6.527 10.477-7.538l.145.53-.771.361a5.223 5.223 0 0 0-2.89 4.72c0 2.89 1.228 4 2.649 4a4.684 4.684 0 0 0 2-.482v-9.78c0-2.89-1.3-4.769-4.72-4.769a11.235 11.235 0 0 0-5.011 1.23l-.361-.361a9.806 9.806 0 0 1 8.6-4.528c4.766-.001 8.403 2.769 8.403 8.019z" class="cls-1" transform="translate(16.999 43.463)"/>
        <path id="Path_126" d="M42.96 50.021l2.168 2.722v.482h-9.3V38.677c0-1.879-.891-2.818-2.649-2.818a3.961 3.961 0 0 0-2.818 1.228v12.958l2.168 2.721v.482H21.212v-.482l2.168-2.721V35.739l-2.24-2.818v-.482h9.2v3.42a8.177 8.177 0 0 1 6.647-3.829c3.709 0 5.949 2.36 5.949 6.647v11.344z" class="cls-1" transform="translate(29.774 43.492)"/>
        <path id="Path_127" d="M41.238 49.8l2.168 2.7v.482H31.99V52.5l2.192-2.7V35.49l-2.192-2.842v-.458h9.248z" class="cls-1" transform="translate(45.055 43.717)"/>
        <path id="Path_128" d="M32.58 31.709a3.8 3.8 0 0 1 3.878-3.829 3.882 3.882 0 0 1 4.07 3.829 3.946 3.946 0 0 1-4.07 4 3.873 3.873 0 0 1-3.878-4z" class="cls-1" transform="translate(45.886 37.647)"/>
        <path id="Path_129" d="M54.159 47.751c0 3.179-2.938 5.9-7.9 5.9a21.239 21.239 0 0 1-7.948-1.541v-6.43h.53l3.589 3.95c1.758 1.951 3.179 2.481 4.239 2.481A1.756 1.756 0 0 0 48.62 50.4c0-.891-.289-1.638-2.6-3.131l-4.6-3.011a7.293 7.293 0 0 1-3.589-6.31c0-3.781 3.54-5.949 8.14-5.949a18.12 18.12 0 0 1 6.719 1.3v6.19h-.482l-3.059-3.3c-1.879-2-2.938-2.649-4.118-2.649-1.3 0-1.951.7-1.951 1.59 0 1.06.53 1.83 2.288 2.938l4.72 3.059c3.373 2.217 4.071 4.336 4.071 6.624z" class="cls-1" transform="translate(53.28 43.449)"/>
        <path id="Path_130" d="M67.16 54.373l2.168 2.722v.482h-9.249V43.029c0-1.879-.891-2.818-2.481-2.818a4.108 4.108 0 0 0-2.89 1.228V54.4l2.168 2.721v.479H45.46v-.482l2.168-2.718V32.071l-2.071-2.721v-.41h9.128v11.247a8.015 8.015 0 0 1 6.715-3.829c3.709 0 5.708 2.36 5.708 6.647v11.368z" class="cls-1" transform="translate(64.026 39.14)"/>
        <path id="Path_131" d="M82.064 51.386l.361.289a12.556 12.556 0 0 1-10.477 5.371c-7.37 0-12.909-5.25-12.909-12.909 0-8.839 6.527-14.547 14.426-14.547a36.884 36.884 0 0 1 7.535.771v9.3h-.482l-4.769-6c-1.758-2.168-2.77-2.721-4.07-2.721-2.938 0-5.371 3.829-5.371 9.369 0 7.538 4.6 12.138 10.477 12.138a11.761 11.761 0 0 0 5.279-1.061z" class="cls-1" transform="translate(83.152 40.055)"/>
        <path id="Path_132" d="M39.7 9.654a5.821 5.821 0 0 1 5.756-5.684 5.6 5.6 0 0 1 5.515 5.684 5.628 5.628 0 0 1-5.515 5.684A5.837 5.837 0 0 1 39.7 9.654z" class="cls-1" transform="translate(55.914 3.972)"/>
        <path id="Path_133" d="M42.575 12.442l16.04 15.39L70.416 9.07h.939l11.8 18.761L99.2 12.442h.819L98.57 34.358a228.525 228.525 0 0 0-27.67-1.734 228.525 228.525 0 0 0-27.673 1.734L41.78 12.442h.795z" class="cls-1" transform="translate(58.843 11.155)"/>
        <path id="Path_134" d="M51.07 7.942a6.744 6.744 0 1 1 13.487 0 6.75 6.75 0 0 1-13.487 0z" class="cls-1" transform="translate(71.927)"/>
        <path id="Path_135" d="M63.35 9.654a5.582 5.582 0 0 1 5.515-5.684 5.837 5.837 0 0 1 5.756 5.684 5.871 5.871 0 0 1-5.756 5.684 5.6 5.6 0 0 1-5.515-5.684z" class="cls-1" transform="translate(89.222 3.972)"/>
        <path id="Path_136" d="M78.638 49.8l2.168 2.7v.482H69.39V52.5l2.168-2.7V35.49l-2.168-2.842v-.458h9.248z" class="cls-1" transform="translate(97.729 43.717)"/>
        <path id="Path_137" d="M80.1 32.01a6.625 6.625 0 0 1 .939.048v7.611a11 11 0 0 0-3.468-.53 9.583 9.583 0 0 0-3.54.578l-.289-.169c.696-4.527 3.058-7.538 6.358-7.538z" class="cls-1" transform="translate(103.856 43.463)"/>
        <path id="Path_138" d="M88.509 32.01c-6.647 0-11.079 4.48-11.079 10.886 0 6.358 4.648 10.717 11.079 10.717S99.587 49.254 99.587 42.9c0-6.41-4.431-10.89-11.078-10.89zm0 20.279c-2.071 0-3.131-2.119-3.131-9.489 0-7.3 1.06-9.417 3.131-9.417S91.64 35.5 91.64 42.8c0 7.369-1.06 9.489-3.131 9.489z" class="cls-1" transform="translate(109.053 43.463)"/>
        <path id="Path_139" d="M94.528 32.19l6.021 13.246-3.372 7.948h-.65L86.58 32.19z" class="cls-1" transform="translate(121.94 43.717)"/>
        <path id="Path_140" d="M104.188 32.19h6.888l-9.61 21.194h-.65L91.52 32.19h7.78l4.889 12.138.819-1.951a11.9 11.9 0 0 0 1.108-4.769 6.924 6.924 0 0 0-1.951-4.937v-.481z" class="cls-1" transform="translate(128.897 43.717)"/>
        <path id="Path_141" d="M123.923 52.732v.482h-9.248V38.667c0-1.879-.771-2.818-2.408-2.818a3.947 3.947 0 0 0-2.938 1.228v12.958l2.168 2.722v.482H100.08v-.482l2.168-2.722V35.729l-2.168-2.818v-.482h9.248v3.42a8.157 8.157 0 0 1 6.6-3.829c3.709 0 5.828 2.36 5.828 6.647v11.368z" class="cls-1" transform="translate(140.953 43.477)"/>
    </g>
</svg>
