<svg xmlns="http://www.w3.org/2000/svg" width="183.589" height="65.891" viewBox="0 0 183.589 65.891">
    <g>
        <path fill="#fff" d="M162.666 167.791c0 5.511-4.409 9.39-10.615 9.39h-8.328v-.327l1.511-1.878v-14l-1.511-1.919v-.286h8.328c6.369-.002 10.615 3.549 10.615 9.02zm-5.92.122c0-5.756-1.511-8.247-4.94-8.247h-.98v16.657h.98c3.429 0 4.94-2.939 4.94-8.41zm19.964.123v9.43h-.163l-4.573-1.551a5.462 5.462 0 0 1-4.082 1.551c-2.082 0-4-1.225-4-3.47 0-2.858 2.082-4.532 7.267-5.226l.082.368-.531.245a3.6 3.6 0 0 0-2 3.266c0 2 .857 2.776 1.837 2.776a3.445 3.445 0 0 0 1.388-.326v-6.777c0-2-.9-3.307-3.266-3.307a7.8 7.8 0 0 0-3.47.857l-.245-.245a6.787 6.787 0 0 1 5.961-3.143c3.263 0 5.795 1.916 5.795 5.552zm17.432 6.94l1.511 1.878v.327H189.2V167.1q0-1.959-1.837-1.959a2.755 2.755 0 0 0-1.96.857v8.981l1.511 1.878v.327h-7.839v-.327l1.511-1.878v-9.92l-1.551-1.96v-.327h6.369v2.368a5.654 5.654 0 0 1 4.613-2.654c2.572 0 4.123 1.633 4.123 4.613zm9.39 0l1.511 1.878v.327h-7.92v-.327l1.511-1.878v-9.92l-1.511-1.96v-.327h6.41zm-5.43-16.738a2.632 2.632 0 0 1 2.694-2.654 2.688 2.688 0 0 1 2.817 2.654 2.738 2.738 0 0 1-2.817 2.776 2.686 2.686 0 0 1-2.696-2.776zm20.086 15.146c0 2.2-2.042 4.082-5.471 4.082a15.056 15.056 0 0 1-5.511-1.062v-4.45h.368l2.49 2.736c1.225 1.347 2.2 1.714 2.94 1.714a1.208 1.208 0 0 0 1.347-1.184c0-.612-.2-1.143-1.8-2.164l-3.184-2.082a5.075 5.075 0 0 1-2.49-4.368c0-2.613 2.449-4.123 5.634-4.123a12.75 12.75 0 0 1 4.654.9v4.287h-.326l-2.123-2.286c-1.306-1.388-2.041-1.837-2.858-1.837-.9 0-1.347.49-1.347 1.1 0 .735.368 1.266 1.592 2.041l3.266 2.123c2.331 1.511 2.819 2.981 2.819 4.573zm-8.778-53.032a4.1 4.1 0 0 1 4.042-4 4 4 0 0 1 0 8 4.125 4.125 0 0 1-4.042-3.999zm4.083 6.777l11.267 10.819 8.287-13.186h.653l8.287 13.186 11.268-10.819h.572l-1.021 15.391a154.756 154.756 0 0 0-38.865 0l-1.021-15.391zm21.147 47.847l1.511 1.878v.327h-6.41V167.1c0-1.306-.612-1.959-1.714-1.959a2.781 2.781 0 0 0-2 .857v8.981l1.511 1.878v.327h-7.92v-.327l1.511-1.878V159.5l-1.429-1.878v-.286h6.328v7.8a5.542 5.542 0 0 1 4.654-2.654c2.572 0 3.96 1.633 3.96 4.613zm-6-58.624a4.736 4.736 0 1 1 9.471 0 4.74 4.74 0 0 1-9.471 0zm29.6 57.2l.245.2a8.949 8.949 0 0 1-16.207-5.226 9.737 9.737 0 0 1 10-10.084 25.465 25.465 0 0 1 5.225.531v6.45h-.326l-3.307-4.164c-1.225-1.511-1.919-1.878-2.817-1.878-2.041 0-3.715 2.654-3.715 6.491 0 5.226 3.184 8.41 7.267 8.41a8.056 8.056 0 0 0 3.632-.735zm-8.818-53.195a3.93 3.93 0 0 1 3.878-4 4 4 0 1 1 0 8 3.955 3.955 0 0 1-3.881-4.004zm16.534 54.624l1.511 1.878v.327h-7.92v-.327l1.511-1.878v-9.92l-1.511-1.96v-.327h6.41zm5.267-12.492a3.739 3.739 0 0 1 .653.041v5.267a7.813 7.813 0 0 0-2.408-.368 6.56 6.56 0 0 0-2.45.408l-.2-.123c.482-3.148 2.115-5.23 4.401-5.23zm17.105 7.553c0 4.409-3.225 7.43-7.675 7.43s-7.675-3.021-7.675-7.43c0-4.45 3.062-7.553 7.675-7.553s7.671 3.098 7.671 7.547zm-5.511-.082c0-5.062-.735-6.532-2.164-6.532s-2.164 1.47-2.164 6.532c0 5.1.735 6.573 2.164 6.573s2.16-1.475 2.16-6.578zm10.941-7.185l4.164 9.186-2.327 5.511h-.449l-6.9-14.7zm11.512 0h4.777l-6.654 14.7h-.449l-6.45-14.7h5.389l3.388 8.41.572-1.347a8.384 8.384 0 0 0 .776-3.307 4.842 4.842 0 0 0-1.347-3.429zm22.045 14.085v.327H320.9V167.1c0-1.306-.531-1.959-1.674-1.959a2.729 2.729 0 0 0-2.041.857v8.981l1.51 1.878v.327h-7.92v-.327l1.511-1.878v-9.92l-1.511-1.96v-.327h6.41v2.368a5.637 5.637 0 0 1 4.572-2.654c2.572 0 4.042 1.633 4.042 4.613v7.879z" transform="translate(-143.723 -111.575)"/>
    </g>
</svg>
