<svg xmlns="http://www.w3.org/2000/svg" width="16" height="12.444" viewBox="0 0 16 12.444">
    <g opacity="0.5">
        <path fill="#b2b4b2" d="M2 9.943A1.884 1.884 0 0 1 3.821 8h12.358A1.887 1.887 0 0 1 18 9.943V18.5a1.884 1.884 0 0 1-1.821 1.943H3.821A1.887 1.887 0 0 1 2 18.5zm14.545 2.93l-6.171 3.96a.687.687 0 0 1-.749 0l-6.17-3.96V18.5a.379.379 0 0 0 .366.387h12.358a.352.352 0 0 0 .258-.112.4.4 0 0 0 .108-.275v-5.627zm-.583-1.44a1.545 1.545 0 0 0 .583-1.1v-.39a.376.376 0 0 0-.361-.388H3.816a.376.376 0 0 0-.361.388v.393a1.551 1.551 0 0 0 .583 1.1L10 15.26z" transform="translate(-2 -8)"/>
    </g>
</svg>
