<svg xmlns="http://www.w3.org/2000/svg" width="16" height="21" viewBox="0 0 16 21">
    <defs>
        <clipPath id="clip-path">
            <path id="Rectangle_174" d="M0 0H16V21H0z" class="icon-lock" transform="translate(0 -.1)"/>
        </clipPath>
        <style>
            .icon-lock{fill:#b2b4b2}
        </style>
    </defs>
    <g id="Component_4_1" opacity="0.5">
        <g id="Group_275" clip-path="url(#clip-path)" transform="translate(0 .1)">
            <path id="Path_659" d="M13.716 205.063H1.959A1.962 1.962 0 0 1 0 203.1v-9.144A1.962 1.962 0 0 1 1.959 192h11.757a1.962 1.962 0 0 1 1.959 1.959v9.141a1.962 1.962 0 0 1-1.959 1.959M1.959 193.306a.654.654 0 0 0-.653.653v9.141a.654.654 0 0 0 .653.653h11.757a.654.654 0 0 0 .653-.653v-9.144a.654.654 0 0 0-.653-.653z" class="icon-lock" transform="translate(0 -184.162)"/>
            <path id="Path_660" d="M73.8 9.144a.653.653 0 0 1-.653-.653V5.225a3.919 3.919 0 1 0-7.838 0v3.266a.653.653 0 0 1-1.306 0V5.225a5.225 5.225 0 0 1 10.45 0v3.266a.653.653 0 0 1-.653.653" class="icon-lock" transform="translate(-61.387)"/>
            <path id="Path_661" d="M151.075 280.816a1.742 1.742 0 1 1 1.742-1.742 1.743 1.743 0 0 1-1.742 1.742m0-2.177a.435.435 0 1 0 .435.435.436.436 0 0 0-.435-.435" class="icon-lock" transform="translate(-143.237 -266.012)"/>
            <path id="Path_662" d="M176.653 339.7a.653.653 0 0 1-.653-.653v-2.395a.653.653 0 1 1 1.306 0v2.395a.653.653 0 0 1-.653.653" class="icon-lock" transform="translate(-168.816 -322.284)"/>
        </g>
    </g>
</svg>
