<svg xmlns="http://www.w3.org/2000/svg" width="51.105" height="31.401" viewBox="0 0 51.105 31.401">
    <path fill="#fff" d="M880.187 948.912a22.851 22.851 0 0 1 .973 4.533 42.2 42.2 0 0 1 .418 7.171c-.029.929-.137 1.855-.2 2.784a.615.615 0 0 1-.55.626 3.314 3.314 0 0 0-2.428 3.861 2.765 2.765 0 0 0 2.12 2.25 2.833 2.833 0 0 0 2.908-1.447 3.547 3.547 0 0 0-.314-3.887.481.481 0 0 1 .014-.667 13.992 13.992 0 0 1 8.381-5.108 14.965 14.965 0 0 1 2.873-.344c.4-.01.415.017.24.383l-4.78 9.988-5.2 10.873c-.211.442-.211.437-.673.3a68.252 68.252 0 0 0-10.853-2.285 30.72 30.72 0 0 0-5.4-.209 53.538 53.538 0 0 0-9.235 1.419c-1.417.331-2.827.691-4.219 1.117-.28.086-.391 0-.505-.239q-2-4.2-4.009-8.383-3.008-6.287-6.012-12.574c-.176-.368-.162-.406.189-.392a14.9 14.9 0 0 1 10.242 4.229 13.242 13.242 0 0 1 1.093 1.27.4.4 0 0 1 .018.558 4.486 4.486 0 0 0-.772 1.927 3.187 3.187 0 0 0 1.878 3.314 2.646 2.646 0 0 0 3.589-2.263 3.3 3.3 0 0 0-2.585-3.734c-.382-.1-.382-.354-.412-.623a31.573 31.573 0 0 1-.214-3.622 41.25 41.25 0 0 1 1.177-10.134c.061-.235.153-.463.231-.694h.21c.253.163.509.324.761.491a24.739 24.739 0 0 1 5.347 4.88 18.246 18.246 0 0 1 3.57 6.314.457.457 0 0 1-.2.606 3.841 3.841 0 0 0-1.787 3.532 3.127 3.127 0 0 0 3.815 2.854 3.256 3.256 0 0 0 2.354-3.828 4.019 4.019 0 0 0-1.74-2.559.435.435 0 0 1-.209-.574 15.949 15.949 0 0 1 .733-1.923 22.881 22.881 0 0 1 5.244-6.961 22 22 0 0 1 3.714-2.832z" transform="translate(-843.626 -948.912)"/>
</svg>
