<svg xmlns="http://www.w3.org/2000/svg" id="Component_8_2" width="105.999" height="86.033" viewBox="0 0 105.999 86.033">
    <defs>
        <style>
            .cls-1{fill:#005151}
        </style>
    </defs>
    <path id="Path_150" d="M2133.369-91.477l3.855-2.553-16.149-25.552a38.461 38.461 0 0 0-18.1 0l-.3 9.749 5.681 12.336-.817.507-14.277-22.592.007.007v-.007a38.462 38.462 0 0 0-18.1 0L2060.9-96.99l-.817-.507 5.684-12.343-.3-9.742a38.461 38.461 0 0 0-18.1 0l-16.149 25.552 3.855 2.553 11.295-14.247.424.174-1.489 53.7h5.389l4-34.754h3.449l4 34.754h5.389l-1.33-43.811 7.979-10.063.424.174-1.489 53.7h5.389l4-34.754h3.448l4 34.754h5.389l-1.489-53.7.424-.174 7.979 10.063-1.335 43.813h5.389l4-34.754h3.449l4 34.754h5.389l-1.489-53.7.424-.174z" class="cls-1" transform="translate(-2031.225 137.88)"/>
    <path id="Path_151" d="M2173.071-138.659a5.6 5.6 0 0 0 4.362-1.921 6.72 6.72 0 0 0 1.721-4.643 6.934 6.934 0 0 0-1.721-4.8 5.6 5.6 0 0 0-4.362-1.921 5.6 5.6 0 0 0-4.363 1.921 6.928 6.928 0 0 0-1.721 4.8 6.714 6.714 0 0 0 1.721 4.643 5.6 5.6 0 0 0 4.363 1.921z" class="cls-1" transform="translate(-2092.268 151.946)"/>
    <path id="Path_152" d="M2072.037-138.659a5.6 5.6 0 0 0 4.363-1.921 6.714 6.714 0 0 0 1.721-4.643 6.928 6.928 0 0 0-1.721-4.8 5.6 5.6 0 0 0-4.363-1.921 5.6 5.6 0 0 0-4.362 1.921 6.933 6.933 0 0 0-1.722 4.8 6.72 6.72 0 0 0 1.722 4.643 5.6 5.6 0 0 0 4.362 1.921z" class="cls-1" transform="translate(-2046.84 151.946)"/>
    <path id="Path_153" d="M2122.554-138.659a5.6 5.6 0 0 0 4.363-1.921 6.719 6.719 0 0 0 1.721-4.643 6.932 6.932 0 0 0-1.721-4.8 5.6 5.6 0 0 0-4.363-1.921 5.6 5.6 0 0 0-4.363 1.921 6.928 6.928 0 0 0-1.721 4.8 6.714 6.714 0 0 0 1.721 4.643 5.6 5.6 0 0 0 4.363 1.921z" class="cls-1" transform="translate(-2069.554 151.946)"/>
</svg>
