<svg xmlns="http://www.w3.org/2000/svg" id="Component_5_2" width="105.085" height="94.47" viewBox="0 0 105.085 94.47">
    <defs>
        <style>
            .cls-1{fill:#005151}
        </style>
    </defs>
    <path id="Path_146" d="M2220.378-346.408l-4.14-7.516c-3.5 1.308-5.263 5.7-6.009 8.232.343.456.663.922.966 1.4 3.541-1.597 9.183-2.116 9.183-2.116z" class="cls-1" transform="translate(-2115.293 387.105)"/>
    <circle id="Ellipse_1" cx="12.863" cy="12.863" r="12.863" class="cls-1" transform="translate(44.196)"/>
    <path id="Path_147" d="M2094.182-359.514a74.834 74.834 0 0 0-25.746 4.419c-2.336-1.92-7.1-4.526-15.13-3.574l-.521.365 4.719 9.029c-6.513 4.713-8.991 8.9-17.552 8.5L2037.733-329s8.959 10.033 23.017 10.033l4.324-7.889h.461l-.489 31.7h7.518l8.139-14.988h19.8l.024-7.232h.3l11.591 12.553.032 9.668h7.672l5.431-16.889s12.188-6.925 10.921-21.662c-1.436-16.715-16.412-25.808-42.292-25.808zm13.473 12.54l-24.062-2.265v-2.835h24.062z" class="cls-1" transform="translate(-2037.733 389.619)"/>
</svg>
